<?xml version="1.0" encoding="UTF-8" standalone="no"?>
<!DOCTYPE svg PUBLIC "-//W3C//DTD SVG 1.1//EN" "http://www.w3.org/Graphics/SVG/1.1/DTD/svg11.dtd">
<svg width="100%" height="100%" viewBox="0 0 550 550" version="1.1" xmlns="http://www.w3.org/2000/svg" xmlns:xlink="http://www.w3.org/1999/xlink" xml:space="preserve" xmlns:serif="http://www.serif.com/" style="fill-rule:evenodd;clip-rule:evenodd;stroke-linejoin:round;stroke-miterlimit:1.41421;">
    <g transform="matrix(5.55556,0,0,5.55556,0,0)">
        <rect id="settings" x="0" y="0" width="98.26" height="98.26" style="fill:none;"/>
        <path d="M59.505,4.256C52.676,2.698 45.584,2.698 38.754,4.256L36.934,15.968C34.637,16.798 32.431,17.86 30.35,19.138L20.058,13.26C14.582,17.627 10.16,23.173 7.12,29.484L15.141,38.209C14.358,40.522 13.813,42.909 13.515,45.333L2.503,49.714C2.503,56.719 4.081,63.634 7.12,69.945L18.943,69.114C20.263,71.169 21.79,73.083 23.499,74.827L20.058,86.169C25.535,90.536 31.925,93.614 38.754,95.172L45.476,85.411C47.906,85.66 50.354,85.66 52.784,85.411L59.505,95.172C66.335,93.614 72.725,90.536 78.201,86.169L74.76,74.827C76.47,73.083 77.996,71.169 79.317,69.114L91.139,69.945C94.179,63.634 95.757,56.719 95.757,49.714L84.744,45.333C84.446,42.909 83.901,40.522 83.118,38.209L91.139,29.484C88.1,23.173 83.678,17.627 78.201,13.26L67.91,19.138C65.829,17.86 63.623,16.798 61.326,15.968L59.505,4.256ZM49.13,31.198C59.349,31.198 67.646,39.495 67.646,49.714C67.646,59.934 59.349,68.23 49.13,68.23C38.911,68.23 30.614,59.934 30.614,49.714C30.614,39.495 38.911,31.198 49.13,31.198Z" style="fill:rgb(94,94,94);"/>
        <clipPath id="_clip1">
            <path d="M59.505,4.256C52.676,2.698 45.584,2.698 38.754,4.256L36.934,15.968C34.637,16.798 32.431,17.86 30.35,19.138L20.058,13.26C14.582,17.627 10.16,23.173 7.12,29.484L15.141,38.209C14.358,40.522 13.813,42.909 13.515,45.333L2.503,49.714C2.503,56.719 4.081,63.634 7.12,69.945L18.943,69.114C20.263,71.169 21.79,73.083 23.499,74.827L20.058,86.169C25.535,90.536 31.925,93.614 38.754,95.172L45.476,85.411C47.906,85.66 50.354,85.66 52.784,85.411L59.505,95.172C66.335,93.614 72.725,90.536 78.201,86.169L74.76,74.827C76.47,73.083 77.996,71.169 79.317,69.114L91.139,69.945C94.179,63.634 95.757,56.719 95.757,49.714L84.744,45.333C84.446,42.909 83.901,40.522 83.118,38.209L91.139,29.484C88.1,23.173 83.678,17.627 78.201,13.26L67.91,19.138C65.829,17.86 63.623,16.798 61.326,15.968L59.505,4.256ZM49.13,31.198C59.349,31.198 67.646,39.495 67.646,49.714C67.646,59.934 59.349,68.23 49.13,68.23C38.911,68.23 30.614,59.934 30.614,49.714C30.614,39.495 38.911,31.198 49.13,31.198Z"/>
        </clipPath>
        <g clip-path="url(#_clip1)">
            <path d="M59.505,7.344C52.676,5.785 45.584,5.785 38.754,7.344L36.934,19.055C34.637,19.885 32.431,20.947 30.35,22.226L20.058,16.347C14.582,20.715 10.16,26.26 7.12,32.571L15.141,41.296C14.358,43.61 13.813,45.997 13.515,48.421L2.503,52.802C2.503,59.807 4.081,66.721 7.12,73.032L18.943,72.202C20.263,74.256 21.79,76.17 23.499,77.915L20.058,89.256C25.535,93.624 31.925,96.701 38.754,98.26L45.476,88.498C47.906,88.747 50.354,88.747 52.784,88.498L59.505,98.26C66.335,96.701 72.725,93.624 78.201,89.256L74.76,77.915C76.47,76.17 77.996,74.256 79.317,72.202L91.139,73.032C94.179,66.721 95.757,59.807 95.757,52.802L84.744,48.421C84.446,45.997 83.901,43.61 83.118,41.296L91.139,32.571C88.1,26.26 83.678,20.715 78.201,16.347L67.91,22.226C65.829,20.947 63.623,19.885 61.326,19.055L59.505,7.344ZM49.13,33.693C59.676,33.693 68.239,42.255 68.239,52.802C68.239,63.348 59.676,71.91 49.13,71.91C38.584,71.91 30.021,63.348 30.021,52.802C30.021,42.255 38.584,33.693 49.13,33.693Z" style="fill:white;"/>
        </g>
    </g>
</svg>
