<?xml version="1.0" encoding="UTF-8" standalone="no"?><!DOCTYPE svg PUBLIC "-//W3C//DTD SVG 1.1//EN" "http://www.w3.org/Graphics/SVG/1.1/DTD/svg11.dtd"><svg width="100%" height="100%" viewBox="0 0 99 99" version="1.1" xmlns="http://www.w3.org/2000/svg" xmlns:xlink="http://www.w3.org/1999/xlink" xml:space="preserve" xmlns:serif="http://www.serif.com/" style="fill-rule:evenodd;clip-rule:evenodd;stroke-linejoin:round;stroke-miterlimit:1.41421;"><rect id="settings" x="0" y="0" width="98.26" height="98.26" style="fill:none;"/><path d="M59.505,4.256c-6.829,-1.558 -13.921,-1.558 -20.751,0l-1.82,11.712c-2.297,0.83 -4.503,1.892 -6.584,3.17l-10.292,-5.878c-5.476,4.367 -9.898,9.913 -12.938,16.224l8.021,8.725c-0.783,2.313 -1.328,4.7 -1.626,7.124l-11.012,4.381c0,7.005 1.578,13.92 4.617,20.231l11.823,-0.831c1.32,2.055 2.847,3.969 4.556,5.713l-3.441,11.342c5.477,4.367 11.867,7.445 18.696,9.003l6.722,-9.761c2.43,0.249 4.878,0.249 7.308,0l6.721,9.761c6.83,-1.558 13.22,-4.636 18.696,-9.003l-3.441,-11.342c1.71,-1.744 3.236,-3.658 4.557,-5.713l11.822,0.831c3.04,-6.311 4.618,-13.226 4.618,-20.231l-11.013,-4.381c-0.298,-2.424 -0.843,-4.811 -1.626,-7.124l8.021,-8.725c-3.039,-6.311 -7.461,-11.857 -12.938,-16.224l-10.291,5.878c-2.081,-1.278 -4.287,-2.34 -6.584,-3.17l-1.821,-11.712Zm-10.375,26.942c10.219,0 18.516,8.297 18.516,18.516c0,10.22 -8.297,18.516 -18.516,18.516c-10.219,0 -18.516,-8.296 -18.516,-18.516c0,-10.219 8.297,-18.516 18.516,-18.516Z" style="fill:#5e5e5e;"/><clipPath id="_clip1"><path d="M59.505,4.256c-6.829,-1.558 -13.921,-1.558 -20.751,0l-1.82,11.712c-2.297,0.83 -4.503,1.892 -6.584,3.17l-10.292,-5.878c-5.476,4.367 -9.898,9.913 -12.938,16.224l8.021,8.725c-0.783,2.313 -1.328,4.7 -1.626,7.124l-11.012,4.381c0,7.005 1.578,13.92 4.617,20.231l11.823,-0.831c1.32,2.055 2.847,3.969 4.556,5.713l-3.441,11.342c5.477,4.367 11.867,7.445 18.696,9.003l6.722,-9.761c2.43,0.249 4.878,0.249 7.308,0l6.721,9.761c6.83,-1.558 13.22,-4.636 18.696,-9.003l-3.441,-11.342c1.71,-1.744 3.236,-3.658 4.557,-5.713l11.822,0.831c3.04,-6.311 4.618,-13.226 4.618,-20.231l-11.013,-4.381c-0.298,-2.424 -0.843,-4.811 -1.626,-7.124l8.021,-8.725c-3.039,-6.311 -7.461,-11.857 -12.938,-16.224l-10.291,5.878c-2.081,-1.278 -4.287,-2.34 -6.584,-3.17l-1.821,-11.712Zm-10.375,26.942c10.219,0 18.516,8.297 18.516,18.516c0,10.22 -8.297,18.516 -18.516,18.516c-10.219,0 -18.516,-8.296 -18.516,-18.516c0,-10.219 8.297,-18.516 18.516,-18.516Z"/></clipPath><g clip-path="url(#_clip1)"><path d="M59.505,7.344c-6.829,-1.559 -13.921,-1.559 -20.751,0l-1.82,11.711c-2.297,0.83 -4.503,1.892 -6.584,3.171l-10.292,-5.879c-5.476,4.368 -9.898,9.913 -12.938,16.224l8.021,8.725c-0.783,2.314 -1.328,4.701 -1.626,7.125l-11.012,4.381c0,7.005 1.578,13.919 4.617,20.23l11.823,-0.83c1.32,2.054 2.847,3.968 4.556,5.713l-3.441,11.341c5.477,4.368 11.867,7.445 18.696,9.004l6.722,-9.762c2.43,0.249 4.878,0.249 7.308,0l6.721,9.762c6.83,-1.559 13.22,-4.636 18.696,-9.004l-3.441,-11.341c1.71,-1.745 3.236,-3.659 4.557,-5.713l11.822,0.83c3.04,-6.311 4.618,-13.225 4.618,-20.23l-11.013,-4.381c-0.298,-2.424 -0.843,-4.811 -1.626,-7.125l8.021,-8.725c-3.039,-6.311 -7.461,-11.856 -12.938,-16.224l-10.291,5.879c-2.081,-1.279 -4.287,-2.341 -6.584,-3.171l-1.821,-11.711Zm-10.375,26.349c10.546,0 19.109,8.562 19.109,19.109c0,10.546 -8.563,19.108 -19.109,19.108c-10.546,0 -19.109,-8.562 -19.109,-19.108c0,-10.547 8.563,-19.109 19.109,-19.109Z" style="fill:#909090;"/></g></svg>